<svg width="17" height="19" viewBox="0 0 17 19" fill="none" xmlns="http://www.w3.org/2000/svg">
<path d="M16.7812 11.075C16.7188 11.0156 16.6313 10.9875 16.5469 10.9906C16.0531 11.025 15.5562 10.9812 15.0781 10.8687C14.5562 10.7437 14.0625 10.5406 13.6094 10.2563C13.5094 10.1937 13.3813 10.1937 13.2781 10.2563C12.8219 10.5406 12.3281 10.7437 11.8094 10.8687C11.3281 10.9812 10.8344 11.025 10.3406 10.9906C10.2531 10.9875 10.1687 11.0156 10.1062 11.075C10.0562 11.1219 10.0312 11.1844 10.0188 11.25L9.5375 10.8781C9.41875 10.7875 9.25313 10.7906 9.14062 10.8906L9.06875 10.9531V10.6125C9.30313 10.4625 9.525 10.2875 9.72813 10.0875C10.4375 9.39062 10.8563 8.48125 10.9281 7.5H10.9438C11.2781 7.5 11.5906 7.36875 11.8281 7.13438C12.0656 6.89687 12.1938 6.58437 12.1938 6.25C12.1938 5.79063 11.9406 5.39062 11.5688 5.175V4.6875C11.5688 2.10312 9.46563 0 6.88125 0C4.29688 0 2.19375 2.10312 2.19375 4.6875V5.175C1.82187 5.39062 1.56875 5.79063 1.56875 6.25C1.56875 6.58437 1.7 6.89687 1.93438 7.13438C2.17188 7.37187 2.48438 7.5 2.81875 7.5H2.84063C2.97187 8.7875 3.68125 9.90625 4.69375 10.5813V10.9531L4.62188 10.8906C4.50938 10.7937 4.34375 10.7875 4.225 10.8781L3.55 11.4L3.02187 11.4719C2.52187 11.5406 2.05937 11.7063 1.64062 11.9594C1.14375 12.2563 0.728125 12.6844 0.4375 13.1969C0.15 13.7031 0 14.2781 0 14.8625V17.8125C0 17.9844 0.140625 18.125 0.3125 18.125H13.4375C13.4563 18.125 13.4781 18.125 13.4969 18.1187C14.0375 18.0125 15.0625 17.6875 15.8875 16.7125C16.6938 15.7594 16.85 14.7156 16.8719 14.1656V11.3C16.8719 11.2125 16.8375 11.1313 16.7719 11.0719L16.7812 11.075ZM6.88125 13.6156L7.31875 13.8344L7.24375 14.4125H6.52188L6.44688 13.8344L6.88438 13.6156H6.88125ZM6.5125 15.0375H7.25L7.64688 17.5031H6.11562L6.5125 15.0375ZM7.83125 14.7188L7.90938 14.1281L8.925 14.6344C8.96875 14.6563 9.01563 14.6687 9.06563 14.6687C9.10313 14.6687 9.14375 14.6625 9.17812 14.6469C9.25937 14.6156 9.325 14.55 9.35625 14.4688L10.0063 12.7719V14.1813C10.0281 14.7188 10.1844 15.7594 10.9906 16.7125C11.275 17.0469 11.5812 17.3 11.8844 17.5H8.28125L7.83437 14.7156L7.83125 14.7188ZM9.35625 11.5312L9.70938 11.8031L8.89688 13.9219L7.44063 13.1969L9.35625 11.5312ZM11.3844 6.69375C11.2656 6.8125 11.1094 6.87813 10.9438 6.87813V5.62813C11.2875 5.62813 11.5688 5.90938 11.5688 6.25313C11.5688 6.41875 11.5031 6.575 11.3844 6.69375ZM2.81875 4.69063C2.81875 2.45 4.64062 0.628125 6.88125 0.628125C9.12187 0.628125 10.9438 2.45 10.9438 4.69063V5.00313H10.1688C9.06563 5.00313 7.98438 4.69375 7.04688 4.1125C6.94688 4.05 6.81875 4.05 6.71875 4.1125C5.78125 4.69375 4.7 5.00313 3.59688 5.00313H2.82188V4.69063H2.81875ZM2.37812 6.69375C2.25938 6.575 2.19375 6.41875 2.19375 6.25313C2.19375 5.90938 2.475 5.62813 2.81875 5.62813V6.87813C2.65313 6.87813 2.49688 6.8125 2.37812 6.69375ZM3.44375 7.06563V5.62813H3.59375C4.75 5.62813 5.88438 5.32188 6.88125 4.74375C7.87813 5.325 9.0125 5.62813 10.1688 5.62813H10.3188V7.19063C10.3188 8.12187 9.95312 8.99063 9.29062 9.64375C8.62813 10.2937 7.7375 10.6406 6.81875 10.6281C4.95937 10.5937 3.44688 8.99687 3.44688 7.06563H3.44375ZM5.31875 10.925C5.77813 11.125 6.28125 11.2437 6.80625 11.2531H6.88438C7.42813 11.2531 7.95625 11.1469 8.44687 10.9406V11.4937L6.88438 12.85L5.32188 11.4937V10.9219L5.31875 10.925ZM4.40625 11.5312L6.32187 13.1969L4.86562 13.9219L4.05313 11.8031L4.40625 11.5312ZM0.63125 14.8656C0.63125 14.3906 0.753125 13.9188 0.9875 13.5063C1.225 13.0906 1.5625 12.7406 1.96875 12.4969C2.3125 12.2875 2.69687 12.15 3.1125 12.0938L3.47813 12.0438L4.40938 14.4688C4.44063 14.55 4.50625 14.6156 4.5875 14.6469C4.625 14.6625 4.6625 14.6687 4.7 14.6687C4.74688 14.6687 4.79688 14.6563 4.84062 14.6344L5.85625 14.1281L5.93437 14.7188L5.4875 17.5031H0.63125V14.8656ZM15.4187 16.3125C14.7469 17.1094 13.9156 17.3938 13.4438 17.4969C12.9719 17.3938 12.1406 17.1094 11.4688 16.3125C10.7844 15.5 10.65 14.6156 10.6313 14.1719V11.6313C11.0813 11.6438 11.5188 11.5844 11.9531 11.4813C12.4781 11.3563 12.9781 11.1594 13.4438 10.8906C13.9094 11.1594 14.4094 11.3563 14.9344 11.4813C15.3688 11.5844 15.8125 11.6438 16.2563 11.6313V14.1594C16.2375 14.6156 16.1031 15.5031 15.4187 16.3156V16.3125ZM15.0313 13.1313C15.1531 13.2531 15.1531 13.45 15.0313 13.5719L13.5469 15.0562C13.4844 15.1188 13.4062 15.1469 13.325 15.1469C13.2437 15.1469 13.1656 15.1156 13.1031 15.0562L12.2688 14.2219C12.1469 14.1 12.1469 13.9031 12.2688 13.7812C12.3906 13.6594 12.5875 13.6594 12.7094 13.7812L13.3219 14.3938L14.5844 13.1313C14.7063 13.0094 14.9031 13.0094 15.025 13.1313H15.0313Z" fill="#8BA1B3"/>
</svg>
