<svg width="20" height="20" viewBox="0 0 20 20" fill="none" xmlns="http://www.w3.org/2000/svg">
<path d="M10 18.2784C8.36272 18.2784 6.76219 17.7928 5.40082 16.8832C4.03946 15.9736 2.9784 14.6807 2.35183 13.168C1.72527 11.6553 1.56133 9.99083 1.88075 8.38499C2.20017 6.77915 2.98861 5.3041 4.14635 4.14635C5.3041 2.98861 6.77915 2.20017 8.38499 1.88075C9.99083 1.56133 11.6553 1.72527 13.168 2.35183C14.6807 2.9784 15.9736 4.03946 16.8832 5.40082C17.7928 6.76219 18.2784 8.36272 18.2784 10C18.2759 12.1948 17.403 14.299 15.851 15.851C14.299 17.403 12.1948 18.2759 10 18.2784ZM10 2.55502C8.52754 2.55502 7.08812 2.99166 5.8638 3.80973C4.63947 4.62779 3.68523 5.79054 3.12173 7.15094C2.55824 8.51133 2.4108 10.0083 2.69807 11.4525C2.98534 12.8967 3.6944 14.2232 4.73561 15.2644C5.77681 16.3056 7.10338 17.0147 8.54757 17.302C9.99176 17.5892 11.4887 17.4418 12.8491 16.8783C14.2095 16.3148 15.3722 15.3606 16.1903 14.1362C17.0084 12.9119 17.445 11.4725 17.445 10C17.4428 8.02616 16.6577 6.13377 15.262 4.73804C13.8663 3.34231 11.9739 2.55722 10 2.55502Z" fill="#8BA1B3"/>
<path d="M12.0834 11.25C12.0821 11.6916 11.9061 12.1148 11.5938 12.4271C11.2815 12.7393 10.8584 12.9154 10.4167 12.9167V13.7583C10.4167 13.8689 10.3728 13.9748 10.2947 14.053C10.2166 14.1311 10.1106 14.175 10.0001 14.175C9.88957 14.175 9.78359 14.1311 9.70545 14.053C9.62731 13.9748 9.58341 13.8689 9.58341 13.7583V12.9167H8.54175C8.43124 12.9167 8.32526 12.8728 8.24712 12.7946C8.16898 12.7165 8.12508 12.6105 8.12508 12.5C8.12508 12.3895 8.16898 12.2835 8.24712 12.2054C8.32526 12.1272 8.43124 12.0833 8.54175 12.0833H10.4167C10.6378 12.0833 10.8497 11.9955 11.006 11.8393C11.1623 11.683 11.2501 11.471 11.2501 11.25C11.2501 11.029 11.1623 10.817 11.006 10.6608C10.8497 10.5045 10.6378 10.4167 10.4167 10.4167H9.58341C9.14139 10.4167 8.71746 10.2411 8.4049 9.92852C8.09234 9.61596 7.91675 9.19204 7.91675 8.75001C7.91675 8.30798 8.09234 7.88406 8.4049 7.5715C8.71746 7.25894 9.14139 7.08335 9.58341 7.08335V6.24168C9.58341 6.13117 9.62731 6.02519 9.70545 5.94705C9.78359 5.86891 9.88957 5.82501 10.0001 5.82501C10.1106 5.82501 10.2166 5.86891 10.2947 5.94705C10.3728 6.02519 10.4167 6.13117 10.4167 6.24168V7.08335H11.4584C11.5689 7.08335 11.6749 7.12724 11.753 7.20538C11.8312 7.28352 11.8751 7.38951 11.8751 7.50001C11.8751 7.61052 11.8312 7.7165 11.753 7.79464C11.6749 7.87278 11.5689 7.91668 11.4584 7.91668H9.58341C9.3624 7.91668 9.15044 8.00448 8.99416 8.16076C8.83788 8.31704 8.75008 8.529 8.75008 8.75001C8.75008 8.97103 8.83788 9.18299 8.99416 9.33927C9.15044 9.49555 9.3624 9.58335 9.58341 9.58335H10.4167C10.8584 9.58466 11.2815 9.76068 11.5938 10.073C11.9061 10.3852 12.0821 10.8084 12.0834 11.25Z" fill="#8BA1B3"/>
</svg>
