<svg width="20" height="20" viewBox="0 0 20 20" fill="none" xmlns="http://www.w3.org/2000/svg">
<g clip-path="url(#clip0_28_5052)">
<path d="M17.42 5.32197L12.45 0.43265C12.3123 0.293972 12.1486 0.18429 11.9683 0.110014C11.788 0.0357374 11.5948 -0.00164357 11.4 5.542e-05H4.5C3.83696 5.542e-05 3.20107 0.265037 2.73223 0.736706C2.26339 1.20838 2 1.8481 2 2.51514V17.4849C2.00185 18.1514 2.26583 18.79 2.73427 19.2613C3.20271 19.7326 3.83753 19.9981 4.5 20H15.37C16.0325 19.9981 16.6673 19.7326 17.1357 19.2613C17.6042 18.79 17.8682 18.1514 17.87 17.4849V6.39843C17.8704 6.19784 17.8308 5.99921 17.7535 5.8143C17.6762 5.6294 17.5628 5.46198 17.42 5.32197ZM16.15 5.47288H13.81C13.4122 5.47288 13.0306 5.31389 12.7493 5.03089C12.468 4.74789 12.31 4.36405 12.31 3.96383V1.70025L16.15 5.47288ZM16.87 17.4849C16.87 17.8851 16.712 18.269 16.4307 18.552C16.1494 18.835 15.7678 18.994 15.37 18.994H4.5C4.10218 18.994 3.72064 18.835 3.43934 18.552C3.15804 18.269 3 17.8851 3 17.4849V2.51514C3 2.11491 3.15804 1.73108 3.43934 1.44808C3.72064 1.16508 4.10218 1.00609 4.5 1.00609H11.31V3.96383C11.31 4.63087 11.5734 5.27059 12.0422 5.74226C12.5111 6.21393 13.147 6.47891 13.81 6.47891H16.87V17.4849Z" fill="#8BA1B3"/>
</g>
<defs>
<clipPath id="clip0_28_5052">
<rect width="20" height="20" fill="white"/>
</clipPath>
</defs>
</svg>
